# xmcd CD database file
#
# Track frame offsets:
#	150
#	20050
#	39419
#	58731
#	76435
#	102100
#	123175
#	142794
#	161252
#	180206
#	198997
#	228458
#	256330
#	275267
#	299211
#	316626
#	338246
#
# Disc length: 4788 seconds
#
# Revision: 2
# Processed by: cddbd v1.5.2PL0 Copyright (c) Steve Scherf et al.
# Submitted via: CDex 1.51
#
DISCID=e312b211
DTITLE=Alizee - Gourmandises
DYEAR=2000
DGENRE=Pop
TTITLE0=Moi... Lolita
TTITLE1=Lui ou Toi
TTITLE2=L'Alize
TTITLE3=J.B.G
TTITLE4=Mon Maquis
TTITLE5=Parler tout bas
TTITLE6=Veni Vedi Vici
TTITLE7=Abracadabra
TTITLE8=Gourmandises
TTITLE9=A quoi reve une jeune fille
TTITLE10=Lolita (remix extented)
TTITLE11=Lolita (club remix)
TTITLE12=Celine Dion Pour que tu M'aimes Encore
TTITLE13=Mylene Farmer Desenchantee
TTITLE14=Vanessa Paradis - Joe la Taxi
TTITLE15=France Gall - Ella, Ella l'a
TTITLE16=Stephanie - Irrisistible
EXTD=YEAR: 2000
EXTT0=
EXTT1=
EXTT2=
EXTT3=
EXTT4=
EXTT5=
EXTT6=
EXTT7=
EXTT8=
EXTT9=
EXTT10=
EXTT11=
EXTT12=
EXTT13=
EXTT14=
EXTT15=
EXTT16=
PLAYORDER=
